<svg width="100" height="20" viewBox="0 0 100 20" fill="none" xmlns="http://www.w3.org/2000/svg">
<g clip-path="url(#clip0_6_13378)">
<path d="M12.1016 0.0571899H0V19.7216H12.1016C12.1674 19.7216 18.4726 19.6445 18.4726 12.9448V6.83399C18.4726 6.7654 18.4011 0.0571899 12.1016 0.0571899ZM14.1195 8.28882V11.8387C14.1195 14.9599 11.3842 15.0742 11.0784 15.0742H4.35305V4.68748H11.0784C14.0052 4.68748 14.1167 7.59713 14.1195 7.92297V8.28882Z" fill="#231916"/>
<path d="M80.6214 0.777405L76.8086 4.59025C77.4033 4.6472 77.9543 4.9275 78.3505 5.37463C78.7467 5.82176 78.9587 6.40248 78.9436 6.99972V12.7647C78.9419 13.1837 78.8347 13.5956 78.6321 13.9623C78.446 14.3261 78.1644 14.6324 77.8174 14.8484C77.4705 15.0644 77.0714 15.182 76.6628 15.1885H71.2322C70.7403 15.1779 70.2649 15.009 69.8766 14.7067C69.4884 14.4044 69.208 13.985 69.0771 13.5107C69.0771 13.4878 69.0571 13.465 69.0514 13.4393C68.9876 13.22 68.9539 12.9931 68.9513 12.7647V12.4332L65.0928 16.306C65.3685 17.0377 65.7983 17.7016 66.3532 18.2525C66.8047 18.7128 67.3426 19.0795 67.9361 19.3316C68.5295 19.5837 69.1669 19.7162 69.8117 19.7216H78.1005C80.9101 19.7216 83.1966 17.2893 83.1966 14.291V5.47629C83.2051 4.53821 82.9727 3.61365 82.5219 2.79098C82.071 1.9683 81.4167 1.27503 80.6214 0.777405Z" fill="#231916"/>
<path d="M98.1424 14.6712C97.9217 14.6101 97.694 14.5784 97.465 14.5768H90.8911V0H85.4834V19.5644H100V17.0663C99.995 16.5189 99.8105 15.9883 99.4749 15.5557C99.1394 15.1231 98.6713 14.8124 98.1424 14.6712Z" fill="#231916"/>
<path d="M21.9908 9.34064L21.3877 14.5912L20.7646 19.7245V19.7359H25.8494L25.8523 19.7245L26.3667 15.4629L26.7097 12.6819H30.4311H31.2857L22.6025 3.99866L21.9908 9.34064Z" fill="#231916"/>
<path d="M68.9658 6.99977C68.9474 6.37479 69.1779 5.76806 69.6067 5.31301C70.0355 4.85795 70.6274 4.59183 71.2524 4.57315H76.683C76.7319 4.57605 76.7805 4.58177 76.8287 4.5903L80.6216 0.777457C79.8624 0.307841 78.9876 0.0584722 78.0949 0.0571899H69.8061C66.9965 0.0571899 64.71 2.48952 64.71 5.48778V14.291C64.7104 14.9821 64.8383 15.6671 65.0872 16.3118L68.9658 12.4332V6.99977Z" fill="#4F4A4E"/>
<path d="M56.0547 0.0571899H43.9502V19.7216H56.0547C56.1176 19.7216 62.3427 19.6416 62.4199 13.0449C62.4199 13.0106 62.4199 12.9791 62.4199 12.9448V6.83399C62.4228 6.7654 62.3513 0.0571899 56.0547 0.0571899ZM58.0554 11.8387C58.0552 12.1268 58.0255 12.4141 57.9668 12.6962C57.5095 14.9627 55.2915 15.0628 55.0143 15.0628H48.3032V4.68748H55.0286C57.9611 4.68748 58.0669 7.59713 58.0697 7.92297L58.0554 11.8387Z" fill="#4F4A4E"/>
<path d="M41.6583 19.7216L40.6779 11.5071L40.6465 11.2413L39.6432 2.74101C39.4717 1.2919 38.0141 0.114319 36.3591 0.114319H26.0239C25.1629 0.119481 24.3339 0.440926 23.6944 1.01751C23.1807 1.45485 22.8443 2.06465 22.7484 2.73243L22.6055 3.99004L31.2858 12.6704H35.7961L36.4163 17.7351V17.8123L38.3199 19.7216H41.6583ZM28.7592 8.28878C28.3984 8.29916 28.0481 8.16665 27.7845 7.92008C27.6672 7.8046 27.5785 7.66334 27.5254 7.50753C27.4723 7.35172 27.4563 7.18568 27.4787 7.0226L27.7217 4.45022H33.1837C34.0411 4.45022 34.8672 5.09903 34.9615 5.87932L35.1873 8.28593L28.7592 8.28878Z" fill="#4F4A4E"/>
</g>
<defs>
<clipPath id="clip0_6_13378">
<rect width="100" height="19.733" fill="white"/>
</clipPath>
</defs>
</svg>
